<?xml version="1.0" encoding="UTF-8" standalone="no"?>
<svg
   xmlns:dc="http://purl.org/dc/elements/1.1/"
   xmlns:cc="http://creativecommons.org/ns#"
   xmlns:rdf="http://www.w3.org/1999/02/22-rdf-syntax-ns#"
   xmlns:svg="http://www.w3.org/2000/svg"
   xmlns="http://www.w3.org/2000/svg"
   xmlns:sodipodi="http://sodipodi.sourceforge.net/DTD/sodipodi-0.dtd"
   xmlns:inkscape="http://www.inkscape.org/namespaces/inkscape"
   inkscape:version="1.0 (4035a4f, 2020-05-01)"
   sodipodi:docname="html.svg"
   id="svg20"
   version="1.1"
   preserveAspectRatio="xMinYMin meet"
   viewBox="0 0 400.01 400.01"
   height="1000"
   width="1000">
  <metadata
     id="metadata26">
    <rdf:RDF>
      <cc:Work
         rdf:about="">
        <dc:format>image/svg+xml</dc:format>
        <dc:type
           rdf:resource="http://purl.org/dc/dcmitype/StillImage" />
        <dc:title></dc:title>
      </cc:Work>
    </rdf:RDF>
  </metadata>
  <defs
     id="defs24" />
  <sodipodi:namedview
     inkscape:current-layer="svg20"
     inkscape:window-maximized="0"
     inkscape:window-y="31"
     inkscape:window-x="9"
     inkscape:cy="1033.7805"
     inkscape:cx="1006.9652"
     inkscape:zoom="0.32374506"
     scale-x="0.40001"
     showgrid="false"
     id="namedview22"
     inkscape:window-height="829"
     inkscape:window-width="1356"
     inkscape:pageshadow="2"
     inkscape:pageopacity="0"
     guidetolerance="10"
     gridtolerance="10"
     objecttolerance="10"
     borderopacity="1"
     bordercolor="#666666"
     pagecolor="#ffffff" />
  <path
     id="path10"
     fill="#e44d26"
     d="M 321.167,85.837 297.926,346.197 193.456,375.159 89.274,346.237 66.057,85.837 Z" />
  <path
     id="path12"
     fill="#f16529"
     d="m 192.24969,351.54128 84.417,-23.403 19.86,-222.49 h -104.277 z" />
  <path
     id="path14"
     fill="#ebebeb"
     d="m 148.432,171.003 h 45.18 v -31.937 h -80.083 l 0.764,8.568 7.85,88.01 h 71.469 v -31.937 h -42.261 z m 7.198,80.61 h -32.06 l 4.474,50.146 65.421,18.16 0.147,-0.04 v -33.228 l -0.14,0.037 -35.568,-9.604 z" />
  <path
     id="path16"
     d="m 88.628338,24.33511 h 16.230002 v 16.035 h 14.847 v -16.035 h 16.231 v 48.558 h -16.23 v -16.26 h -14.847 v 16.26 H 88.629338 v -48.558 z m 68.650002,16.103 h -14.286 v -16.103 h 44.814 v 16.103 h -14.295 v 32.455 h -16.23 v -32.455 h -0.001 z m 37.64,-16.103 h 16.923 l 10.41,17.062 10.4,-17.062 h 16.93 v 48.558 h -16.164 v -24.068 l -11.166,17.265 h -0.28 l -11.173,-17.265 v 24.068 h -15.88 z m 62.74,0 h 16.235 v 32.508 h 22.824 v 16.05 h -39.06 v -48.558 z" />
  <path
     id="path18"
     fill="#ffffff"
     d="m 193.612,235.644 h 39.327 l -3.708,41.42 -35.62,9.614 v 33.226 l 65.473,-18.145 0.48,-5.396 7.506,-84.08 0.779,-8.576 h -74.237 z m 0,-64.719 v 0.078 h 77.143 l 0.64,-7.178 1.456,-16.191 0.763,-8.568 h -80.002 v 31.86 z" />
</svg>
