<?xml version="1.0" encoding="UTF-8" standalone="no"?>
<svg
   xmlns:dc="http://purl.org/dc/elements/1.1/"
   xmlns:cc="http://creativecommons.org/ns#"
   xmlns:rdf="http://www.w3.org/1999/02/22-rdf-syntax-ns#"
   xmlns:svg="http://www.w3.org/2000/svg"
   xmlns="http://www.w3.org/2000/svg"
   xmlns:sodipodi="http://sodipodi.sourceforge.net/DTD/sodipodi-0.dtd"
   xmlns:inkscape="http://www.inkscape.org/namespaces/inkscape"
   inkscape:version="1.0 (4035a4f, 2020-05-01)"
   sodipodi:docname="oracle.svg"
   id="svg34"
   version="1.1"
   viewBox="0 0 288 288">
  <metadata
     id="metadata40">
    <rdf:RDF>
      <cc:Work
         rdf:about="">
        <dc:format>image/svg+xml</dc:format>
        <dc:type
           rdf:resource="http://purl.org/dc/dcmitype/StillImage" />
        <dc:title>sql-ddm-new</dc:title>
      </cc:Work>
    </rdf:RDF>
  </metadata>
  <defs
     id="defs38" />
  <sodipodi:namedview
     inkscape:current-layer="svg34"
     inkscape:window-maximized="0"
     inkscape:window-y="23"
     inkscape:window-x="0"
     inkscape:cy="148.01394"
     inkscape:cx="117.90941"
     inkscape:zoom="1.9930556"
     showgrid="false"
     id="namedview36"
     inkscape:window-height="893"
     inkscape:window-width="1405"
     inkscape:pageshadow="2"
     inkscape:pageopacity="0"
     guidetolerance="10"
     gridtolerance="10"
     objecttolerance="10"
     borderopacity="1"
     bordercolor="#666666"
     pagecolor="#ffffff" />
  <title
     id="title10">sql-ddm-new</title>
  <path
     id="path12"
     fill="#d1d1d1"
     d="m 126,55.874879 c -35.35,0 -64,-4.94 -64,-11 V 163.80488 c 0,6.09 28.65,11 64,11 35.35,0 64,-4.94 64,-11 V 44.804879 c 0,6.13 -28.65,11.07 -64,11.07 z" />
  <path
     id="path14"
     fill="#adadad"
     d="M 62,44.804879 V 163.80488 c 0,6.09 28.65,11 64,11 V 55.874879 c -35.35,0 -64,-4.94 -64,-11.07 z" />
  <path
     id="path16"
     fill="#adadad"
     d="M 181,50.484879 V 169.41488 c 5.71,-1.65 9,-3.58 9,-5.64 V 44.804879 c 0,2.1 -3.28,4 -9,5.68 z" />
  <ellipse
     id="ellipse18"
     fill="#939699"
     ry="11.03"
     rx="64"
     cy="44.834877"
     cx="126.00002" />
  <path
     id="path20"
     fill="#939699"
     d="m 62,119.62488 c 0,6.09 28.65,11 64,11 35.35,0 64,-4.94 64,-11 v 9 c 0,6.09 -28.65,11 -64,11 -35.35,0 -64,-4.94 -64,-11 z" />
  <path
     id="path22"
     fill="#939699"
     d="m 62,79.984875 c 0,6.09 28.65,11 64,11 35.35,0 64,-4.94 64,-11 v 9 c 0,6.09 -28.65,11.000003 -64,11.000003 -35.35,0 -64,-4.940003 -64,-11.000003 z" />
  <rect
     id="rect24"
     stroke-width="5"
     stroke-miterlimit="10"
     stroke="#ecedf0"
     fill="#099b05"
     height="45"
     width="72"
     y="138.80489"
     x="90.000008" />
  <rect
     id="rect26"
     stroke-width="5"
     stroke-miterlimit="10"
     stroke="#ecedf0"
     fill="#099b05"
     height="45"
     width="72"
     y="75.804878"
     x="90.000008" />
  <rect
     id="rect28"
     stroke-width="5"
     stroke-miterlimit="10"
     stroke="#ecedf0"
     fill="#099b05"
     height="45"
     width="72"
     y="75.804878"
     x="180" />
  <line
     id="line30"
     stroke-width="4"
     stroke-miterlimit="10"
     stroke="#ecedf0"
     fill="none"
     y2="99.804878"
     x2="180"
     y1="99.804878"
     x1="162" />
  <line
     id="line32"
     stroke-width="4"
     stroke-miterlimit="10"
     stroke="#ecedf0"
     fill="none"
     y2="135.80489"
     x2="126.00002"
     y1="123.80488"
     x1="126.00002" />
  <text
     transform="scale(1.0294631,0.97138013)"
     id="text67"
     y="216.77101"
     x="58.973259"
     style="font-size:20.9814px;line-height:1.25;font-family:sans-serif;-inkscape-font-specification:'sans-serif, Normal';word-spacing:0px;stroke-width:1.57361"
     xml:space="preserve"><tspan
       style="stroke-width:1.57361"
       y="216.77101"
       x="58.973259"
       id="tspan65"
       sodipodi:role="line">      Oracle</tspan><tspan
       style="stroke-width:1.57361"
       id="tspan69"
       y="242.99776"
       x="58.973259"
       sodipodi:role="line">SQL Developer</tspan><tspan
       style="stroke-width:1.57361"
       id="tspan71"
       y="269.22452"
       x="58.973259"
       sodipodi:role="line"> Data Modeler</tspan></text>
</svg>
